Coordinates
version=1
nRows=8
nColumns=34
inDegrees=yes

Units are S.I. units (second, meters, Newtons, ...)
If the header above contains a line with 'inDegrees', this indicates whether rotational values are in degrees (yes) or radians (no).

endheader
time	pelvis_tilt	pelvis_list	pelvis_rotation	pelvis_tx	pelvis_ty	pelvis_tz	hip_flexion_r	hip_adduction_r	hip_rotation_r	knee_angle_r	ankle_angle_r	subtalar_angle_r	mtp_angle_r	hip_flexion_l	hip_adduction_l	hip_rotation_l	knee_angle_l	ankle_angle_l	subtalar_angle_l	mtp_angle_l	lumbar_extension	lumbar_bending	lumbar_rotation	arm_flex_r	arm_add_r	arm_rot_r	elbow_flex_r	pro_sup_r	arm_flex_l	arm_add_l	arm_rot_l	elbow_flex_l	pro_sup_l
      4.50000000	     -3.86197655	      1.16403884	     -1.12393325	      0.02210901	      1.21714017	     -0.07561038	     -2.55742287	      0.74759110	     -2.07097997	      2.18790915	     19.44132684	      3.63246249	      0.00000000	     -2.40043747	      2.21100267	    -12.40149806	      2.22787130	     18.46914163	     10.67827199	      0.00000000	      2.61459926	      0.10768580	      1.36723290	      4.34430946	     -7.49254730	     22.19747382	     19.24622708	     65.27795109	      2.72554328	    -10.07337958	     28.38244556	     24.09002218	     66.18206094
      4.51666670	     -3.82617594	      1.21486738	     -1.23769614	      0.02175988	      1.21430663	     -0.07533817	     -2.95010480	      0.79175012	     -1.91026035	      1.65693709	     19.11707908	      3.73429887	      0.00000000	     -2.72616823	      2.31397679	    -12.63323110	      1.64646347	     18.12453400	     10.73771012	      0.00000000	      2.78086966	      0.08442481	      1.43331412	      4.33835211	     -7.34404766	     22.19698514	     19.24926031	     65.25908283	      2.56862798	    -10.11599661	     28.51819129	     23.95478408	     66.16918732
      4.53333330	     -3.86571573	      1.22291469	     -1.28124452	      0.02143508	      1.21438592	     -0.07471732	     -2.98538503	      0.85290688	     -1.94585887	      1.57078005	     19.09774540	      3.70388444	      0.00000000	     -2.68827769	      2.29960951	    -12.66646450	      1.53476500	     18.09007285	     10.74440045	      0.00000000	      2.67456015	      0.04514104	      1.48173520	      4.36239235	     -7.36146384	     22.19308209	     19.24064353	     65.25572364	      2.50609780	    -10.15711367	     28.53791043	     23.90954950	     66.16516022
      4.55000000	     -3.81893073	      1.23519151	     -1.28905918	      0.01977079	      1.21384512	     -0.07443807	     -2.97662753	      0.86752098	     -1.95122221	      1.55145905	     19.09670024	      3.70049727	      0.00000000	     -2.65552779	      2.30635231	    -12.67102499	      1.50359913	     18.08902442	     10.74374359	      0.00000000	      2.66979181	      0.04928755	      1.48476505	      4.35782755	     -7.36331883	     22.19312453	     19.23859096	     65.25549971	      2.49754399	    -10.16459377	     28.53892375	     23.90430029	     66.16472653
      4.56666670	     -3.91201152	      1.25026319	     -1.35017592	      0.01851938	      1.21491299	     -0.07373661	     -2.88697219	      0.89454621	     -2.04379640	      1.28625880	     19.06729635	      3.64427956	      0.00000000	     -2.59658969	      2.33368356	    -12.74417226	      1.24917245	     18.04750227	     10.72469870	      0.00000000	      2.45403273	      0.07195227	      1.56927959	      4.35557622	     -7.40344881	     22.18969187	     19.21561008	     65.25274779	      2.36176556	    -10.33665762	     28.54142528	     23.80144312	     66.15747308
      4.58333330	     -3.84794315	      1.31177311	     -1.44074730	      0.01911278	      1.21583502	     -0.07339744	     -3.01329562	      0.84928511	     -2.05197821	      0.95659559	     18.55954661	      3.64005423	      0.00000000	     -2.84167037	      2.44042658	    -13.02761519	      0.81278530	     17.50250237	     10.73714394	      0.00000000	      2.42713958	     -0.01388669	      1.57954592	      4.32774417	     -7.41453470	     22.18602751	     19.18994628	     65.24092141	      2.18849047	    -10.54393700	     28.59180860	     23.58693591	     66.12039375
      4.60000000	     -3.88943628	      1.31919367	     -1.39179210	      0.01900173	      1.21836017	     -0.07302541	     -2.97188424	      0.87378088	     -2.07393599	      0.85038333	     18.52426578	      3.61634977	      0.00000000	     -2.77412789	      2.43933009	    -13.09649651	      0.70936587	     17.47913297	     10.70740007	      0.00000000	      2.24149692	     -0.02379737	      1.60528063	      4.26318256	     -7.46493874	     22.18345482	     19.15047317	     65.23869608	      2.06439147	    -10.61843546	     28.59835441	     23.51061194	     66.11382067
      4.61666670	     -3.93569665	      1.33167242	     -1.35355553	      0.01949917	      1.21861734	     -0.07298715	     -2.95685500	      0.88666943	     -2.15014329	      0.74938258	     18.42367869	      3.57940135	      0.00000000	     -2.71363383	      2.44962847	    -13.23090856	      0.59115412	     17.41830234	     10.64966102	      0.00000000	      2.04952064	     -0.04373937	      1.62809696	      4.15972038	     -7.55140063	     22.17646427	     19.09681206	     65.23562323	      1.88108627	    -10.74087004	     28.60040436	     23.40053479	     66.10572541
